<svg xmlns="http://www.w3.org/2000/svg" viewBox="0 0 64 64" fill="none">
  <rect width="64" height="64" rx="16" fill="#fff8ef"/>
  <path d="M32 14c4.6 5.4 6.8 11 6.8 16.4 0 5.8-2.4 11-6.8 15.6-4.4-4.6-6.8-9.8-6.8-15.6C25.2 25 27.4 19.4 32 14Z" stroke="#B8860B" stroke-width="3" stroke-linecap="round" stroke-linejoin="round"/>
  <path d="M19.2 22.2c5.8 2.1 10.1 5.2 12.8 9.4 2.8 4.3 3.8 9.1 3.2 14.6-5.8-.6-10.6-2.8-14.4-6.7-3.8-3.9-5.7-9.7-5.6-17.3Z" stroke="#B8860B" stroke-width="3" stroke-linecap="round" stroke-linejoin="round"/>
  <path d="M44.8 22.2c.1 7.6-1.8 13.4-5.6 17.3-3.8 3.9-8.6 6.1-14.4 6.7-.6-5.5.4-10.3 3.2-14.6 2.7-4.2 7-7.3 12.8-9.4Z" stroke="#B8860B" stroke-width="3" stroke-linecap="round" stroke-linejoin="round"/>
  <path d="M20 50.2c4.2 2.6 8.2 3.8 12 3.8s7.8-1.2 12-3.8" stroke="#7A1522" stroke-width="3" stroke-linecap="round"/>
  <circle cx="32" cy="48.4" r="2.4" fill="#7A1522"/>
</svg>