<?xml version='1.0' encoding='utf-8'?>
<svg xmlns="http://www.w3.org/2000/svg" viewBox="0 0 400 520" fill="none">
  <g stroke="currentColor" stroke-width="2.2" stroke-linecap="round" stroke-linejoin="round" fill="none">
    <path d="M160 58 C160 30 240 30 240 58"/>
    <path d="M172 58 L172 40"/>
    <path d="M200 58 L200 32"/>
    <path d="M228 58 L228 40"/>
    <circle cx="200" cy="26" r="7"/>
    <path d="M148 70 C120 78 108 112 118 148 C124 170 140 186 160 196 C150 206 148 222 158 232 C170 244 190 246 200 244 C210 246 230 244 242 232 C252 222 250 206 240 196 C260 186 276 170 282 148 C292 112 280 78 252 70 C232 58 168 58 148 70Z"/>
    <path d="M118 118 C90 108 70 128 74 156 C78 182 104 196 128 190"/>
    <path d="M282 118 C310 108 330 128 326 156 C322 182 296 196 272 190"/>
    <path d="M96 138 C90 150 92 166 106 176"/>
    <path d="M304 138 C310 150 308 166 294 176"/>
    <path d="M168 138 C174 132 186 132 190 140"/>
    <path d="M210 140 C214 132 226 132 232 138"/>
    <circle cx="178" cy="146" r="3.2"/>
    <circle cx="222" cy="146" r="3.2"/>
    <path d="M196 190 C186 210 168 216 168 236 C168 252 182 262 196 258 C206 255 210 244 204 236"/>
    <path d="M204 196 C214 200 220 210 216 220"/>
    <path d="M138 232 C118 250 108 280 116 312 C122 336 140 352 160 360"/>
    <path d="M262 232 C282 250 292 280 284 312 C278 336 260 352 240 360"/>
    <path d="M160 360 C176 372 224 372 240 360"/>
    <path d="M158 300 C176 318 224 318 242 300"/>
    <path d="M118 260 C96 254 78 264 74 282 C70 300 82 314 100 314"/>
    <path d="M282 260 C304 254 322 264 326 282 C330 300 318 314 300 314"/>
    <path d="M100 314 C104 300 116 292 128 292"/>
    <path d="M300 314 C296 300 284 292 272 292"/>
    <path d="M150 356 C130 378 118 404 128 428 C136 448 158 456 178 452"/>
    <path d="M250 356 C270 378 282 404 272 428 C264 448 242 456 222 452"/>
    <path d="M178 452 C192 460 208 460 222 452"/>
    <path d="M150 400 C170 412 230 412 250 400"/>
    <path d="M110 466 C110 448 290 448 290 466"/>
    <path d="M96 470 C130 486 270 486 304 470"/>
    <path d="M120 486 C150 498 250 498 280 486"/>
    <path d="M96 470 C90 462 92 452 100 448"/>
    <path d="M304 470 C310 462 308 452 300 448"/>
  </g>
</svg>